<svg xmlns="http://www.w3.org/2000/svg" xmlns:xlink="http://www.w3.org/1999/xlink" version="1.1" x="0px" y="0px" viewBox="0 0 100 125" style="enable-background:new 0 0 100 100;" xml:space="preserve"><g><path d="M33.4,28.2c4.3-2.7,7.9-3.4,12.8-4.3c1.3-0.2,2.8-0.5,4.4-0.9c3.4-0.7,6.8-1.6,10.3-2.6c-3.9-1.8-8.3-2.8-12.8-2.8   c-16.9,0-30.6,13.7-30.6,30.6c0,16.9,13.7,30.6,30.6,30.6c13.6,0,25.2-9,29.2-21.3c-4.3,1.4-8.4,3.2-12.1,5.4   c-1.3,0.7-2.5,1.5-3.6,2.2c-3.3,2-6.4,3.9-11.4,5.4c-3.1,0.9-5.9,1.7-9,1.7c-1.2,0-2.5-0.1-3.9-0.5c-10.2-2.4-14.4-12.9-14.9-14.1   c-2.9-7.7-0.8-14.6,0.2-17.2C25.4,33.2,31,29.7,33.4,28.2z"/><path d="M64.5,22.5c-4.4,1.4-8.9,2.6-13.3,3.5c-1.6,0.3-3.1,0.6-4.4,0.9c-4.8,0.9-7.9,1.5-11.8,3.9c-2.1,1.3-7.2,4.5-9.7,10.8   c-0.9,2.3-2.7,8.2-0.2,15c0.4,1,4.1,10.2,12.8,12.3c4,0.9,7.2,0,11.4-1.2c4.6-1.3,7.4-3.1,10.6-5.1c1.2-0.7,2.4-1.4,3.7-2.2   c4.5-2.5,9.3-4.6,14.5-6.2c0.4-1.9,0.6-3.9,0.6-5.9C78.6,37.5,72.9,28,64.5,22.5z"/></g><text x="0" y="115" fill="#000000" font-size="5px" font-weight="bold" font-family="'Helvetica Neue', Helvetica, Arial-Unicode, Arial, Sans-serif">Created by Kelsey Chisamore</text><text x="0" y="120" fill="#000000" font-size="5px" font-weight="bold" font-family="'Helvetica Neue', Helvetica, Arial-Unicode, Arial, Sans-serif">from the Noun Project</text></svg>