<svg xmlns:dc="http://purl.org/dc/elements/1.1/" xmlns:cc="http://creativecommons.org/ns#" xmlns:rdf="http://www.w3.org/1999/02/22-rdf-syntax-ns#" xmlns:svg="http://www.w3.org/2000/svg" xmlns="http://www.w3.org/2000/svg" xmlns:sodipodi="http://sodipodi.sourceforge.net/DTD/sodipodi-0.dtd" xmlns:inkscape="http://www.inkscape.org/namespaces/inkscape" viewBox="0 0 80 100" version="1.1" x="0px" y="0px"><path style="text-indent:0;text-transform:none;direction:ltr;block-progression:tb;baseline-shift:baseline;color:#000000;enable-background:accumulate;" d="m 52.794082,12.272895 0.0341,0.886752 0.954963,-0.03411 1.63708,0 0,-0.886752 -1.671186,0 z m 5.21819,0.920858 1.227809,0.102317 0.03411,0 1.364233,0.102317 0.06821,-0.852645 -1.364233,-0.136423 -0.03411,0 -1.22781,-0.06821 z m -9.617841,-0.579799 -0.852646,0.136423 0.102318,0.852645 0.852645,-0.102317 1.739397,-0.204635 -0.03411,-0.40927 -0.03411,-0.443375 -0.0341,0 z m 14.801925,1.125492 1.739397,0.204635 0.03411,0 0.784434,0.170529 0.170529,-0.852646 -0.81854,-0.170529 -0.03411,0 -1.739396,-0.238741 z m -19.98601,-0.170529 -0.852645,0.204634 0.204635,0.852646 0.852645,-0.204635 1.671185,-0.375164 -0.06821,-0.443376 -0.06821,-0.409269 -0.03411,0 z m 25.135989,1.023174 0.511587,0.102318 0.03411,0 1.978138,0.477481 0.204635,-0.852645 -2.012244,-0.477482 -0.03411,0 -0.511587,-0.102317 z m -30.115438,0.477482 -0.886752,0.375164 0.306953,0.784434 0.886751,-0.341058 1.568868,-0.545694 -0.306953,-0.818539 z m -4.774815,2.114561 -0.03411,0 -0.886751,0.477481 0.40927,0.784434 0.886751,-0.477481 1.432444,-0.716223 -0.375164,-0.784433 z m -4.604285,2.728465 -0.03411,0 -0.750328,0.545693 0.477481,0.716223 0.784434,-0.545694 1.398339,-0.886751 -0.477482,-0.750328 z m -2.967207,2.148667 -1.46655,1.193704 -0.511587,0.477481 0.579799,0.648011 0.511587,-0.477482 0,0.03411 1.398339,-1.193704 0.03411,0 0.03411,-0.03411 -0.545693,-0.682116 z m -4.297333,3.785746 -1.398339,1.398338 -0.102317,0.136424 0.613905,0.579799 0.102317,-0.102318 0.03411,-0.03411 1.364233,-1.364232 0.341058,-0.341059 -0.579799,-0.613904 z" fill="#000000" fill-opacity="1" stroke="none" marker="none" visibility="visible" display="inline" overflow="visible"/><path style="" d="m 74.048044,17.074111 c 0.34975,1.105948 1.529826,1.718966 2.635772,1.369216 1.105948,-0.34975 1.718966,-1.529824 1.369216,-2.635772 -0.34975,-1.105946 -1.529824,-1.718965 -2.635772,-1.369215 -1.105945,0.34975 -1.718965,1.529825 -1.369216,2.635771 z" fill="#000000" stroke="none"/><path d="m 59.908555,47.708842 c -0.01158,0.0044 -0.01214,0.05064 -0.05457,0.190992 -0.07772,0.256618 0.272847,1.336949 0.272847,1.336949 0,0 -1.406772,0.253398 -2.100919,0.436554 -0.67821,0.178944 -2.019064,0.654832 -2.019064,0.654832 l -2.482904,0.600262 c 0,0 -1.056478,0.351034 -1.609795,0.436555 -1.159592,0.179249 -3.51972,0.163708 -3.51972,0.163708 l -1.909926,0 -1.118671,0.381985 c 0,0 -2.492334,-0.642074 -3.737998,-0.491124 -0.691467,0.08382 -1.286647,0.603689 -1.964495,0.76397 -0.564012,0.133357 -1.718933,0.163708 -1.718933,0.163708 0,0 1.002864,0.415207 1.527941,0.40927 0.547509,-0.0065 1.009321,-0.448887 1.555225,-0.491124 1.108598,-0.08578 3.301443,0.491124 3.301443,0.491124 l -1.391517,2.128203 c -0.318538,0.47309 -0.272847,1.22781 -0.272847,1.22781 l -1.091386,1.145955 c -0.38254,0.420773 -1.543984,0.496199 -1.773503,0.763971 0,0 -0.414064,1.265516 -0.873109,1.609794 l -1.091386,0.81854 -0.327416,0.218277 c -0.09287,0.162289 -0.199593,0.328824 0.05457,0.491124 0,0 0.949069,0.18057 1.255094,-0.163708 l 1.336948,-1.800787 c 0.229517,-0.229508 2.073634,-0.763971 2.073634,-0.763971 l 2.210057,-0.818539 c 0.04445,-0.02873 0.09138,-0.05383 0.136423,-0.08185 l 0.08185,0.05457 c -0.08423,0.05188 -0.163943,0.10966 -0.245562,0.163708 -0.324967,0.384735 -1.278075,1.545818 -1.500656,1.99178 0.388533,1.906477 0.01501,2.968407 0,3.219589 0,0.0055 0.04393,0.400135 0.109139,0.545693 0.150118,0.335209 0.306842,0.270882 1.200525,0.300131 0.444164,-0.07443 0.452254,-0.504777 0.163708,-0.600262 l -0.682117,-0.218277 c 0,0 0.38461,-2.959556 0.545693,-3.383297 0.282786,-0.465193 0.995138,-1.027311 1.882641,-1.773503 l 1.746218,-2.319196 c 0.153021,-0.210386 1.064102,-0.518408 1.064102,-0.518408 0.248646,-0.0191 1.93721,0.327416 1.93721,0.327416 1.037593,0.223144 2.510703,1.24478 3.737998,1.282378 0.703276,0.05413 1.99178,-0.600262 1.99178,-0.600262 l 0.600263,-0.381985 c 0.518425,0.550037 0.923929,1.82925 1.555225,1.664364 l 1.691648,-0.190993 2.537473,2.482904 1.473372,0.927678 c 0.420798,0.296453 0.535299,0.192717 1.118671,0.900394 0.35315,0.247657 0.698962,-0.640862 0.491123,-0.845825 l -1.200524,-0.491123 c 0,0 -1.174175,-0.765859 -1.282379,-0.982248 -0.108189,-0.2164 -1.364233,-2.155488 -1.364233,-2.155488 l 0.927678,0.05457 c 0,0 1.13049,0.239679 1.446087,0.545693 l 0.545693,1.064101 c 0.292507,0.288312 1.064079,-0.378394 0.654832,-0.682116 0,0 -1.209821,-1.55664 -1.446087,-1.691649 0,0 -1.076767,-0.545693 -1.200525,-0.545693 l -1.773502,-0.136423 c -1.095082,0.01473 -1.446949,-0.233426 -2.264627,-0.327416 -0.02939,-0.0015 -0.03833,-0.02729 -0.02728,-0.05457 0.338734,-0.883008 0.484996,-1.54035 0.40927,-2.073634 -0.07572,-0.533273 -0.387749,-0.931968 -0.927679,-1.336948 -0.03044,-0.02119 -0.0095,-0.104173 0.02728,-0.109139 0.01252,-0.0011 0.0179,0.01888 0.02728,0.02728 0.551703,0.41381 0.875516,0.859346 0.954963,1.418802 0.07769,0.547145 -0.0567,1.185878 -0.381986,2.046349 0.702525,0.08971 1.063451,0.297141 1.882642,0.327416 l -0.682106,-2.264625 c 0,0 0.985128,-0.671694 1.855357,-0.327416 l 0.627547,0.436554 0.818539,0.245562 c 0.286914,0.191265 0.927679,0.08185 0.927679,0.08185 0.124338,-0.114759 0.05457,-0.491124 0.05457,-0.491124 l -1.255094,-0.873109 c 0.96042,0.218387 1.685826,0.03059 2.592042,-0.245562 0,0 0.259601,-0.444434 -0.02728,-0.654831 l -1.418803,-0.545693 c 0,0 -0.380732,-0.813236 -0.709401,-1.091387 -0.345524,-0.292415 -0.815827,-0.436478 -1.255094,-0.545693 -0.286365,-0.07116 -0.873109,-0.05457 -0.873109,-0.05457 0,0 -0.313844,-0.402602 -0.518408,-0.518409 -0.204535,-0.115807 -0.437847,-0.02155 -0.654832,-0.163707 -0.216955,-0.142164 -0.359971,-0.697342 -0.545693,-0.709402 -0.06966,-0.0044 -0.0956,-0.02466 -0.109139,-0.02728 z" style="" fill="#000000" stroke="none"/><path style="" d="m 12.116005,34.342743 c 0,1.636954 -1.268229,2.963967 -2.8326682,2.963967 -1.56444,0 -2.8326686,-1.327013 -2.8326686,-2.963967 0,-1.636953 1.2682286,-2.963966 2.8326686,-2.963966 1.5644392,0 2.8326682,1.327013 2.8326682,2.963966 z" fill="#000000" fill-opacity="1" stroke="none"/><path d="M 6.7592298,34.824685 C 6.4490326,35.44391 5.3761028,35.855869 4.6380435,35.691195 3.8350176,35.512203 3.3927473,34.35453 3.3927473,34.35453 c 2.2306221,1.978287 2.5713116,-0.921034 3.9856555,-2.21621 -0.419269,1.618832 -0.7040211,2.787152 -0.619173,2.686365 z" style="" fill="#000000" stroke="none"/><path style="" d="M 6.65593,34.362057 C 6.2298719,34.900505 5.0986707,35.070687 4.4092237,34.749966 3.6590716,34.400793 3.4555689,33.172257 3.4555689,33.172257 5.2461083,35.591144 6.153518,32.828407 7.7935898,31.868453 7.0628978,33.361164 6.5529761,34.442098 6.65593,34.362057 z" fill="#000000" stroke="none"/><path style="" d="m 16.471384,30.246662 c -0.227153,-0.005 -0.446688,0.133243 -0.545693,0.354701 l -1.909926,4.310975 c -1.05933,0.896523 -2.128505,1.782158 -3.192304,2.673897 l -3.1650202,0 c -0.364612,1.06e-4 -0.474296,0.211685 -0.572978,0.3547 -0.9593209,1.390292 -1.9128257,2.783075 -2.8648891,4.174552 -0.1066611,0.155026 -0.1596209,0.326067 -0.1909925,0.518409 l -0.7639704,5.10223 c -0.048403,0.31979 0.1713293,0.606407 0.4911238,0.654832 l 0.7639704,0.109139 c 0.3197944,0.04843 0.6064178,-0.171335 0.6548317,-0.491124 l 0.7639703,-4.993092 1.0641018,-1.555225 0,7.612419 c -0.03942,0.231081 -0.5189421,2.993132 -0.9822478,3.983559 -0.4827812,1.03209 -1.500656,2.100919 -1.500656,2.100919 l 1.500656,0.02728 -0.054569,0.272847 -3.7379978,6.521033 c -0.1612719,0.280379 -0.062176,0.630117 0.2182773,0.791255 l 1.6643639,0.982247 c 0.2803702,0.161266 0.6572887,0.0621 0.8185397,-0.218277 0,0 3.621476,-6.335472 3.737998,-6.521033 0.116523,-0.18556 0.234178,-0.398623 0.300131,-0.709401 0.04758,-0.224221 0.127311,-0.709607 0.190993,-1.064101 l 0.136423,0 c 0.02543,0.20469 0.04654,0.407152 0.08185,0.682116 l 0.6275469,7.475996 c 0.0267,0.322348 0.305217,0.57253 0.627547,0.545693 l 1.93721,-0.163708 c 0.322338,-0.0267 0.572401,-0.305213 0.545694,-0.627547 L 12.48782,55.730526 c 0.01121,-0.113049 -0.02751,-0.290951 -0.05457,-0.436554 l 0.873109,0.02728 C 12.180836,53.592177 11.781677,51.28247 11.614716,48.800228 l 0,-9.304067 c 0.45153,-0.382902 3.560909,-3.032689 3.656143,-3.110451 0.102165,-0.08341 0.285173,-0.195673 0.381986,-0.40927 0.09682,-0.213597 2.046349,-4.583822 2.046349,-4.583822 0.132014,-0.295276 -0.0049,-0.631961 -0.300132,-0.76397 l -0.709401,-0.327416 c -0.07382,-0.033 -0.142559,-0.05289 -0.218277,-0.05457 z" fill="#000000" stroke="none"/><text x="0" y="95" fill="#000000" font-size="5px" font-weight="bold" font-family="'Helvetica Neue', Helvetica, Arial-Unicode, Arial, Sans-serif">Created by James Keuning</text><text x="0" y="100" fill="#000000" font-size="5px" font-weight="bold" font-family="'Helvetica Neue', Helvetica, Arial-Unicode, Arial, Sans-serif">from the Noun Project</text></svg>