<?xml version="1.0" encoding="UTF-8"?>
<svg width="71px" height="48px" viewBox="0 0 71 48" version="1.1" xmlns="http://www.w3.org/2000/svg" xmlns:xlink="http://www.w3.org/1999/xlink">
    <!-- Generator: Sketch 44.1 (41455) - http://www.bohemiancoding.com/sketch -->
    <title>FETCHlogo</title>
    <desc>Created with Sketch.</desc>
    <defs></defs>
    <g id="Page-1" stroke="none" stroke-width="1" fill="none" fill-rule="evenodd">
        <g id="Group" transform="translate(38.918226, 9.261556) rotate(10.000000) translate(-38.918226, -9.261556) translate(7.918226, 1.261556)" fill-rule="nonzero" fill="#FFFFFF">
            <path d="M35.1285015,0.03411 L35.1651256,0.920862 L36.1907754,0.886752 L37.9490327,0.886752 L37.9490327,0 L36.1541448,0 L35.1285015,0.03411 Z M40.732944,0.954968 L42.0516359,1.057285 L42.0882708,1.057285 L43.5534848,1.159602 L43.6267437,0.306957 L42.1615297,0.170534 L42.1248948,0.170534 L40.8062019,0.102324 L40.732944,0.954968 Z M30.4031867,0.375169 L29.4874275,0.511592 L29.5973191,1.364237 L30.5130772,1.26192 L32.3812251,1.057285 L32.3445902,0.648015 L32.3079554,0.20464 L32.2713313,0.20464 L30.4031867,0.375169 Z M46.3007559,1.500661 L48.1689038,1.705296 L48.2055386,1.705296 L49.0480367,1.875825 L49.2311884,1.023179 L48.3520597,0.85265 L48.3154249,0.85265 L46.4472781,0.613909 L46.3007559,1.500661 Z M24.8353737,1.330132 L23.9196155,1.534766 L24.1393977,2.387412 L25.0551558,2.182777 L26.8500426,1.807613 L26.7767837,1.364237 L26.7035247,0.954968 L26.6668899,0.954968 L24.8353737,1.330132 Z M51.8319384,2.353306 L52.3813933,2.455624 L52.4180281,2.455624 L54.5425887,2.933105 L54.7623708,2.08046 L52.6011797,1.602978 L52.5645449,1.602978 L52.01509,1.500661 L51.8319384,2.353306 Z M19.4873439,2.830788 L18.5349542,3.205952 L18.8646279,3.990386 L19.8170166,3.649328 L21.5020128,3.103634 L21.172339,2.285095 L19.4873439,2.830788 Z M14.3590952,4.945349 L14.3224604,4.945349 L13.3700717,5.42283 L13.8096361,6.207264 L14.7620247,5.729783 L16.3004988,5.01356 L15.897565,4.229127 L14.3590952,4.945349 Z M9.41399924,7.673814 L9.3773644,7.673814 L8.57149683,8.219507 L9.08432116,8.93573 L9.92681927,8.390036 L11.4286639,7.503285 L10.9158385,6.752957 L9.41399924,7.673814 Z M6.22715842,9.822481 L4.65205381,11.016185 L4.10259894,11.493666 L4.72531489,12.141677 L5.27476976,11.664195 L5.27476976,11.698305 L6.77661436,10.504601 L6.8132492,10.504601 L6.84988403,10.470491 L6.26379862,9.788375 L6.22715842,9.822481 Z M1.61173514,13.608227 L0.109890544,15.006565 L0,15.142989 L0.659346488,15.722788 L0.769237033,15.62047 L0.805871868,15.58636 L2.27108593,14.222128 L2.63738918,13.881069 L2.01467323,13.267165 L1.61173514,13.608227 Z" id="Shape"></path>
            <path d="M57.0983123,4.7340839 C57.4480623,5.8400319 58.6281383,6.4530499 59.7340843,6.1032999 C60.8400323,5.7535499 61.4530503,4.5734759 61.1033003,3.4675279 C60.7535503,2.3615819 59.5734763,1.7485629 58.4675283,2.0983129 C57.3615833,2.4480629 56.7485633,3.6281379 57.0983123,4.7340839 L57.0983123,4.7340839 Z" id="Shape"></path>
        </g>
        <path d="M50.2822495,12.0000022 C50.2564921,12.0097892 50.2552464,12.1126411 50.1608691,12.4248271 C49.9879959,12.9956244 50.7677647,15.3986126 50.7677647,15.3986126 C50.7677647,15.3986126 47.6386714,15.9622477 46.0946751,16.3696429 C44.5861276,16.7676694 41.6036562,17.8261905 41.6036562,17.8261905 L36.0809146,19.1613577 C36.0809146,19.1613577 33.7309828,19.9421652 32.5002357,20.1323902 C29.9209467,20.5310951 24.6712966,20.4965271 24.6712966,20.4965271 L20.4230342,20.4965271 L17.9347661,21.3461792 C17.9347661,21.3461792 12.3910492,19.9180092 9.62030962,20.2537684 C8.08227449,20.4402099 6.75841124,21.5965583 5.25066895,21.9530725 C3.99613291,22.2496995 1.42723364,22.3172094 1.42723364,22.3172094 C1.42723364,22.3172094 3.65791141,23.2407574 4.82584404,23.2275517 C6.04367233,23.2130937 7.07088416,22.229089 8.28514244,22.135141 C10.7510051,21.9443399 15.6285664,23.2275517 15.6285664,23.2275517 L12.5334049,27.9613293 C11.8248785,29.0136268 11.9265093,30.6923561 11.9265093,30.6923561 L9.49893139,33.2413122 C8.64804486,34.1772407 6.06463643,34.3450113 5.55411563,34.9406185 C5.55411563,34.9406185 4.63311003,37.7555151 3.61205286,38.5212952 L1.18447496,40.3419797 L0.456201141,40.8274948 C0.249629717,41.1884755 0.0122449634,41.5589005 0.577581593,41.9199056 C0.577581593,41.9199056 2.68860275,42.3215487 3.36929641,41.5557687 L6.34307967,37.5502649 C6.85359602,37.0397686 10.955479,35.8509586 10.955479,35.8509586 L15.8713251,34.0302763 C15.9701955,33.9663719 16.0745823,33.9105418 16.1747717,33.8482167 L16.3568313,33.9695972 C16.1694779,34.0849942 15.9921717,34.2135147 15.8106259,34.3337341 C15.0877995,35.189503 12.9677943,37.7721084 12.4727058,38.764065 C13.3369226,43.0046558 12.5060926,45.3667145 12.4727058,45.9254205 C12.4727058,45.9376541 12.5704196,46.8154437 12.7154644,47.1392094 C13.049373,47.8848173 13.3979754,47.7417342 15.385801,47.806793 C16.3737583,47.6412378 16.3917529,46.6840138 15.7499379,46.4716258 L14.2327001,45.9861107 C14.2327001,45.9861107 15.0881909,39.4031485 15.446489,38.4606183 C16.075492,37.4258861 17.6599818,36.1755629 19.6340612,34.5158025 L23.5181868,29.3571978 C23.8585525,28.8892347 25.8850767,28.2040991 25.8850767,28.2040991 C26.4381418,28.1616148 30.1940271,28.9323729 30.1940271,28.9323729 C32.5019529,29.4287137 35.7786023,31.7011462 38.5084836,31.7847757 C40.0727856,31.9051775 42.9388145,30.4496085 42.9388145,30.4496085 L44.2739839,29.5999565 C45.4271204,30.8234078 46.3290859,33.6687707 47.7332823,33.3020136 L51.4960274,32.8771864 L57.1401472,38.3999281 L60.4173794,40.4633691 C61.3533635,41.1227716 61.6080489,40.8920309 62.9056475,42.4661221 C63.6911617,43.0169873 64.4603538,41.040648 63.998056,40.5847473 L61.3277217,39.4923388 C61.3277217,39.4923388 58.7159956,37.788833 58.4753166,37.3075173 C58.234671,36.8261772 55.4408431,32.5130495 55.4408431,32.5130495 L57.5042841,32.63443 C57.5042841,32.63443 60.0188413,33.1675497 60.7208261,33.8482189 L61.934615,36.2151066 C62.5852405,36.8564011 64.3014538,35.3734421 63.3911627,34.697871 C63.3911627,34.697871 60.7001489,31.2354252 60.1746207,30.9351237 C60.1746207,30.9351237 57.77956,29.7213347 57.5042841,29.7213347 L53.5594706,29.417888 C51.1236716,29.4506521 50.3410113,28.8986769 48.5222441,28.6896142 C48.4568717,28.6862778 48.4369864,28.6289129 48.461565,28.5682338 C49.2150135,26.6041526 49.5403452,25.1420219 49.3719073,23.9558344 C49.2034827,22.7696714 48.5094343,21.8828511 47.308464,20.9820511 C47.2407561,20.9349181 47.2873331,20.7503384 47.3691431,20.7392925 C47.3969915,20.7368457 47.4089582,20.7812874 47.4298223,20.7999716 C48.6569793,21.7204122 49.3772389,22.7114212 49.5539535,23.9558233 C49.7267599,25.1728419 49.4278352,26.5935804 48.7042992,28.5075324 C50.2669307,28.707075 51.0697411,29.1684653 52.8918736,29.2358062 L51.3746603,24.1985842 C51.3746603,24.1985842 53.5658877,22.7045303 55.5015445,23.4703104 L56.8974019,24.4413407 L58.7180842,24.987546 C59.3562691,25.4129782 60.7815274,25.1696056 60.7815274,25.1696056 C61.0580933,24.9143463 60.9029079,24.0771948 60.9029079,24.0771948 L58.1111931,22.1351321 C60.2474623,22.6208919 61.8609882,22.2031736 63.8766911,21.5889267 C63.8766911,21.5889267 64.4541236,20.6003689 63.816012,20.1323813 L60.6601581,18.9185924 C60.6601581,18.9185924 59.8132931,17.1097055 59.0822322,16.4910122 C58.3136807,15.8405914 57.2675822,15.520151 56.2905174,15.2772233 C55.6535536,15.1189416 54.3484546,15.1558428 54.3484546,15.1558428 C54.3484546,15.1558428 53.6503691,14.2603322 53.1953559,14.0027419 C52.7404072,13.7451515 52.2214496,13.954808 51.7388083,13.6386072 C51.2562337,13.3223908 50.9381221,12.0875043 50.5250193,12.0606791 C50.3700741,12.0508922 50.3123756,12.0058277 50.2822607,12 L50.2822495,12.0000022 Z" id="Shape" fill="#FFFFFF" fill-rule="nonzero"></path>
    </g>
</svg>